<svg width="119" height="95" viewBox="0 0 119 95" fill="none" xmlns="http://www.w3.org/2000/svg">
<path d="M116.589 19.9966C107.173 19.4831 97.7583 19.1407 88.3431 18.7983C82.694 12.4645 75.8466 6.64421 69.3416 1.67985C67.2874 0.139185 64.3773 2.87814 66.4315 4.58999C71.2246 8.35606 75.5043 12.2933 79.7839 16.5729C80.4686 17.2577 80.9822 17.9424 81.6669 18.6271C68.8281 18.2848 55.9892 18.1136 43.1503 17.9424C42.9791 17.9424 42.808 17.9424 42.808 17.9424C48.7994 13.6628 54.4485 8.86961 58.7282 3.56288C59.9264 2.1934 58.3858 -0.545554 56.6739 0.823925C52.2231 4.07644 48.2859 8.18487 44.0063 11.6086C41.2673 13.834 38.5283 15.8882 35.6182 17.9424C28.4284 17.7712 21.4099 17.7712 14.2201 17.7712C9.94047 17.7712 6.1744 17.4289 2.06596 18.456C1.03885 18.7983 0.354113 19.8254 0.696482 21.0237C1.89478 25.8169 2.92189 30.6101 4.12018 35.4033C4.29136 36.2592 5.14729 36.9439 6.00321 36.9439C6.68795 36.9439 7.37269 36.9439 8.05743 36.9439C13.3642 55.2607 13.5353 74.6046 21.9234 91.8943C22.2658 92.579 23.1217 92.9214 23.8064 92.9214C37.8436 93.2637 51.8808 92.4078 65.7467 93.7773C74.9907 94.2909 84.5771 95.4892 93.8211 94.2909C103.065 93.0926 101.524 84.8757 102.894 76.83C105.119 64.3335 108.372 51.6658 109.741 38.9981C110.084 38.9981 110.426 38.9981 110.597 38.827H110.768C111.111 38.6558 111.282 38.4846 111.624 38.1422C115.219 33.349 117.445 28.5559 118.643 22.5644C118.814 21.1949 117.958 19.9966 116.589 19.9966ZM97.2448 82.4791C96.7312 84.8757 97.0736 88.2994 95.1905 89.4977C93.3075 90.696 89.3702 90.1824 87.1448 90.1824C82.1805 90.3536 77.0449 90.1824 72.0806 89.6689C64.8908 88.9841 57.701 88.2994 50.3401 88.2994C46.574 88.2994 42.6368 88.2994 38.8707 88.2994C35.447 88.2994 29.9691 89.4977 26.7166 88.2994C19.698 85.7316 17.815 67.4148 16.6167 60.7386C15.076 52.6929 13.7065 44.4761 11.4811 36.6016C42.6368 36.7727 73.9636 37.4575 105.119 38.827C101.867 53.2065 99.8125 68.0996 97.2448 82.4791ZM108.714 35.4033C84.9194 34.205 61.1247 33.349 37.33 32.8355C31.5098 32.6643 25.6895 32.6643 20.0404 32.6643C18.1573 32.6643 7.54388 33.0067 7.54388 33.1779C5.83203 31.1236 5.31847 25.4745 4.80492 21.7085C8.22862 21.1949 11.8235 21.5373 15.2472 21.5373C20.0404 21.5373 24.8335 21.7085 29.6267 21.7085C29.1132 22.0508 28.4284 22.3932 27.9149 22.9068C25.6895 24.2762 27.7437 27.6999 29.9691 26.3305C32.1945 24.961 34.5911 23.4203 36.8165 21.8797C39.5555 21.8797 42.2944 21.8797 45.0334 22.0508C58.3858 22.222 71.9094 22.5644 85.2618 22.9068C87.316 25.3034 89.5414 27.6999 91.7668 29.7542C93.3075 31.1236 96.2176 29.2406 94.8482 27.3576C93.8211 25.9881 92.7939 24.4474 91.7668 23.078C99.1278 23.2491 106.489 23.5915 113.678 24.1051C112.651 28.0423 110.597 31.6372 108.714 35.4033Z" fill="#F48990"/>
<path d="M40.5818 83.1638C41.609 84.8756 44.0055 83.6774 43.6632 81.7943C41.7801 69.9826 37.1581 57.1437 32.8785 45.8455C32.0226 43.4489 28.0854 44.476 28.9413 46.8726C33.0497 58.5132 34.4192 72.5503 40.5818 83.1638Z" fill="#F48990"/>
<path d="M51.1947 83.3349C52.2218 85.3891 54.9607 83.8484 54.6183 81.9654C52.5641 70.6672 51.3658 58.3419 47.771 47.386C46.915 44.9894 43.149 46.0165 43.8337 48.4131C47.4286 59.5402 45.8879 72.5502 51.1947 83.3349Z" fill="#F48990"/>
<path d="M66.0877 83.6773C68.3131 72.3791 67.286 59.7114 67.6283 48.242C67.6283 45.6742 63.6911 45.6742 63.5199 48.242C63.0063 59.5402 61.1233 71.8655 62.4928 83.1637C62.8352 84.8755 65.5741 85.7315 66.0877 83.6773Z" fill="#F48990"/>
<path d="M81.8389 83.6772C83.5508 71.6943 84.9202 60.2249 88.1727 48.5843C88.8575 46.0165 84.9202 44.8182 84.0643 47.386C80.6406 58.8554 77.9017 71.0095 77.7305 82.9925C77.7305 85.3891 81.4965 86.0738 81.8389 83.6772Z" fill="#F48990"/>
</svg>
