<svg width="93" height="96" viewBox="0 0 93 96" fill="none" xmlns="http://www.w3.org/2000/svg">
<path fill-rule="evenodd" clip-rule="evenodd" d="M91.5937 68.3046C91.6627 65.7165 91.265 62.9681 92.0006 60.4785C92.2443 38.0905 100.306 -7.099 66.2041 0.948097C59.2202 7.69772 53.6271 18.3283 53.3765 29.2567C47.472 27.177 37.6731 30.5874 40.9628 36.5399C40.3501 38.0367 40.0237 39.8186 38.3421 40.2503C37.6295 35.7727 35.3249 33.0277 34.48 28.707C33.1249 21.7764 41.8674 15.88 40.2731 8.78105C38.4409 0.622869 9.1893 -2.25494 6.75597 6.71975C6.60425 7.92446 7.33643 8.24855 7.85941 8.78105C14.3801 16.3082 12.6203 24.5798 8.27321 32.5548C0.818052 46.2361 -2.03022 65.4658 1.5146 82.7223C5.79505 90.0812 18.3732 93.2865 28.2732 89.1822C39.4409 101.084 69.8972 96.8766 74.619 80.661C78.9248 82.933 85.4041 83.8995 89.7799 81.2072C90.1765 76.8831 90.8719 72.5898 91.5937 68.3046ZM82.4799 4.93328C79.4949 6.88121 71.9673 6.93733 69.5144 4.10876C71.9271 0.779757 79.6144 3.18347 82.4799 4.93328ZM57.6524 32.4173C57.8696 36.3831 44.495 35.8689 42.8927 33.1044C43.7478 29.401 57.4846 29.3632 57.6524 32.4173ZM21.9272 4.52217C24.5594 4.52675 35.8892 3.77666 35.9961 7.82025C36.1122 12.1914 15.9318 9.90675 12.9617 8.50735C12.1031 8.10311 11.3502 7.2763 10.4789 6.85831C13.0893 4.41109 18.2939 4.5153 21.9272 4.52217ZM4.82379 82.586C4.68816 82.5597 4.57666 82.5208 4.45138 82.4898C4.90195 73.6033 4.67322 64.7237 5.5985 55.8509C6.25827 49.5296 7.487 43.3136 9.47895 37.3404C10.5077 35.0192 11.5835 32.8433 12.6858 30.9057C17.941 25.4971 14.5088 16.3655 11.5824 11.1172C18.249 14.287 28.9525 14.5561 36.4099 12.7662C32.4708 19.3681 30.3686 26.475 33.5134 33.2419C34.3823 35.1108 36.9938 40.7965 36.6858 42.5864C35.7525 48.0271 23.7732 51.4489 22.0651 59.6357C20.3031 68.0813 19.3663 79.9602 26.203 86.5701C18.5467 89.3024 8.72608 88.2649 4.82379 82.586ZM22.4789 68.1546C22.3146 52.3547 39.3789 49.241 42.6168 36.1277C42.6547 35.586 42.0271 35.7074 42.0651 35.1657C42.8743 35.6433 43.7754 36.0269 44.4099 36.6774C40.8122 50.5694 27.6203 58.9188 30.6168 78.3249C31.3065 82.7853 33.0341 86.8083 35.0306 90.2793C24.3709 70.1793 39.357 52.2528 45.7892 37.227C46.8467 37.2889 48.5605 37.8454 49.9271 38.0516C46.3501 55.7433 39.0363 75.1172 46.3398 93.4399C29.249 93.8682 22.6318 82.7761 22.4789 68.1546ZM47.0306 93.3037C40.6766 73.6858 48.4938 55.2852 51.5823 38.0516C52.4294 38.3161 52.9949 38.0825 54.065 38.189C48.9662 56.0548 62.1547 72.5475 57.3754 91.5161C53.9099 92.3978 51.1191 93.172 47.0306 93.3037ZM69.7903 83.1334C67.3098 86.8438 63.1627 89.843 58.0662 91.3798C62.4466 71.9005 50.357 55.0905 55.0317 38.0516C56.2214 37.9725 56.4903 37.8225 57.3765 37.5019C54.5662 55.1443 81.3983 62.9681 69.7903 83.1334ZM88.5178 55.6047C88.3454 59.1318 88.1201 62.6567 87.8834 66.1769C83.9339 67.4137 79.9202 67.132 76.2719 67.3312C78.9868 69.4154 84.342 68.9734 87.7696 67.8969C87.565 70.8801 87.3604 73.8667 87.165 76.8545C84.5052 80.0621 79.7949 81.2336 75.0305 78.3237C75.8811 74.8035 75.5374 69.3662 74.3409 66.5056C74.357 62.7998 70.5259 56.5953 67.3064 53.4506C74.4305 55.1031 82.488 53.674 88.6834 51.1981C88.6374 52.6799 88.588 54.1515 88.5178 55.6047ZM66.342 52.2139C62.6202 51.1225 60.7742 46.3002 60.7099 41.6772C61.0386 39.5323 61.3099 37.3805 61.3719 35.2104C61.3984 35.0798 61.4248 34.9482 61.4524 34.8176C62.3972 32.3314 59.4788 29.7342 55.7214 29.2567C57.4501 19.8445 61.2593 11.3394 66.757 4.65844C70.5374 9.56091 78.3489 10.3763 84.688 7.81911C88.1535 17.1477 89.3247 29.4742 88.9638 39.5632C82.4834 41.4401 73.7052 42.5063 65.9294 41.6245C71.4512 45.4562 82.7661 42.8727 89.127 40.8355C88.9661 43.0353 88.8753 45.2512 88.8029 47.4626C85.2144 53.2743 72.7822 54.1068 66.342 52.2139Z" fill="#F48990"/>
</svg>
