<svg width="110" height="108" viewBox="0 0 110 108" fill="none" xmlns="http://www.w3.org/2000/svg">
<path d="M109.954 43.6917C109.954 43.3523 109.782 43.0129 109.609 42.8432C109.436 42.5039 109.091 42.3342 108.919 42.1645C105.122 38.9405 101.153 35.8862 97.1841 33.0015C100.29 30.7956 103.569 28.4201 105.985 25.7051C107.02 24.5173 106.503 22.9902 105.122 22.3114C99.6001 20.2752 93.9053 18.5784 88.2106 17.0512C83.3787 8.22761 74.0601 1.94929 63.3609 0.422127C50.0732 -1.4444 35.405 3.81582 27.4669 14.1666C27.1218 14.1666 26.7766 14.1666 26.6041 14.1666C19.3562 15.1847 12.281 17.2209 5.37829 19.2571C2.96234 19.9358 2.61721 23.1598 4.68802 24.3476C7.9668 26.2142 10.9004 28.4201 13.8341 30.7956C9.34733 32.6622 4.68802 36.0559 1.0641 38.4314C-0.661571 39.6192 -0.14387 41.6554 1.5818 42.5039C5.89599 44.2007 10.2102 46.2369 14.5244 48.1035C14.6969 55.5696 14.5244 63.2054 14.6969 70.8412C14.8695 75.762 13.6615 79.6648 17.9757 82.5494C30.228 91.373 44.2059 98.6694 57.3211 106.645C58.0113 107.154 58.8742 107.154 59.5644 106.814C59.737 106.814 60.0821 106.814 60.2547 106.645C68.8831 103.59 76.9937 97.1423 84.9318 92.5608C90.6265 89.1671 96.4938 85.7734 102.189 82.5494C102.879 82.21 103.397 81.3616 103.397 80.5132C103.051 70.3321 102.361 60.151 101.326 49.97C104.087 48.4428 106.848 47.0853 109.436 45.5582C109.782 45.3885 110.127 44.5401 109.954 43.6917ZM78.7194 56.7574C76.3035 57.9451 73.3698 58.9633 71.299 60.4904C70.6087 60.9995 69.9185 61.1692 69.5733 61.3388C69.2282 60.8298 69.0556 60.4904 68.8831 60.3207C67.1574 57.4361 64.7415 54.7211 62.3255 52.1759C71.6441 47.9338 81.4805 43.1826 89.9363 37.7527C93.3876 35.5468 93.2151 36.0559 96.6664 38.6011C99.0824 40.298 101.498 41.9948 103.914 43.8613C95.4584 47.9338 87.1752 52.3456 78.7194 56.7574ZM46.4493 60.3207C33.3342 53.3637 20.0465 46.0672 6.41369 40.1283C10.0376 37.9224 14.0067 35.5468 17.6306 34.359C20.7368 33.3409 18.3208 33.5106 20.9093 34.6984C24.0156 36.2255 27.1218 37.9224 30.228 39.4495C38.1661 43.6917 45.9316 47.9338 53.6971 52.3456C51.2812 55.0605 48.8653 57.6058 46.4493 60.3207ZM100.635 25.0264C97.8744 27.2323 94.9407 29.2685 92.1797 31.4744C92.0071 31.4744 91.8345 31.6441 91.662 31.6441C91.662 28.0807 91.1443 24.8567 90.1088 21.6327C93.5602 22.8205 97.0115 23.8386 100.635 25.0264ZM64.7414 5.34297C79.2371 8.56698 84.9318 19.9358 86.4849 33.5106C86.4849 33.6803 86.4849 33.85 86.6575 34.0196C76.9937 38.9405 67.6751 44.7098 57.6662 49.1216C47.8299 43.6917 37.8209 38.2618 27.812 33.1712C26.9492 32.8319 26.2589 32.3228 25.3961 31.8137C25.3961 31.6441 25.3961 31.6441 25.3961 31.4744C25.3961 11.6213 47.3121 1.60992 64.7414 5.34297ZM21.427 29.9472C20.9093 29.7775 20.5642 29.6078 20.0465 29.6078C19.8739 29.2685 19.7014 29.0988 19.5288 28.9291C17.2854 26.8929 15.0421 25.0264 12.6261 23.3295C16.25 22.4811 20.0465 21.463 23.6704 20.4449C22.4625 23.3295 21.5996 26.5535 21.427 29.9472ZM20.3916 77.7982C20.7368 75.253 20.0465 71.3502 19.8739 69.4837C19.7014 63.375 19.5288 57.0967 19.3562 50.9881C28.1572 55.3999 36.9581 59.9814 45.5865 64.5628C46.2767 65.4113 47.6573 65.7506 48.8653 64.7325C51.2812 62.5266 53.5246 60.151 55.7679 57.7755C55.7679 71.8593 55.5954 86.1128 55.4228 100.197C44.3785 93.2395 33.1616 86.2824 22.1173 79.3254C21.7722 78.8163 20.9093 78.3073 20.3916 77.7982ZM97.7018 69.8231C97.8744 72.1986 99.0824 78.1376 98.3921 78.986C97.3567 80.3435 94.2505 81.3616 92.6974 82.21C86.6575 85.6037 80.6176 88.9974 74.5778 92.5608C70.091 95.106 64.7414 97.6513 60.4273 100.875C60.4273 86.1128 60.2547 71.3502 60.0821 56.7574C62.4981 59.642 64.914 62.6963 67.33 65.5809C68.0202 66.4294 69.2282 66.2597 70.091 65.9203C78.892 61.6782 87.6929 57.0967 96.3213 52.5152C97.0115 58.2845 97.3567 64.0538 97.7018 69.8231Z" fill="#F48990"/>
</svg>
