<svg width="135" height="51" viewBox="0 0 135 51" fill="none" xmlns="http://www.w3.org/2000/svg">
<path d="M27.2522 1.29845C25.2746 -0.343593 21.1707 0.958054 17.7859 3.75072C12.4091 8.18783 -0.30292 21.4009 0.377868 37.7086C0.59361 42.8912 3.89927 45.0175 6.66077 44.9839C9.42228 44.9504 13.4782 44.1641 23.2034 33.8228C23.2034 33.8228 20.3269 39.365 19.917 44.4661C19.6509 47.7838 20.7032 50.0826 21.8634 50.4878C21.8634 50.4878 22.2254 43.9795 24.3972 38.3558C26.569 32.7321 28.2902 29.1197 29.1364 26.5499C29.1364 26.5499 32.5475 25.639 34.4484 25.4664C34.4484 25.4664 33.9738 23.1795 31.3993 23.3378C28.4172 23.5223 19.3105 26.5068 14.3868 26.7513C14.3868 26.7513 13.9049 30.1912 17.0763 30.1528C20.2478 30.1145 24.3589 27.981 24.8047 27.7892C25.2506 27.5975 24.4188 28.6378 21.8371 31.1692C19.2553 33.7006 10.4411 43.1453 5.74027 43.2005C4.39787 43.2172 3.18012 41.3283 3.13698 37.6727C3.09383 34.017 4.63039 20.3198 20.4923 5.6157C22.8175 3.46067 24.8215 2.65283 25.5502 2.64324C26.279 2.63365 26.9526 4.05995 26.0536 7.17144C25.3561 9.58776 25.9146 10.7408 27.0508 10.9014C28.1367 11.0548 30.3397 9.25695 30.4476 4.21816C30.5555 -0.820624 28.1391 2.03437 27.2522 1.29845Z" fill="#FF9994"/>
<path d="M52.053 29.345C50.5428 31.9747 44.7178 35.6591 40.8296 35.4961C39.4872 35.4409 38.4612 34.6163 38.3414 31.373C38.2862 29.834 38.4996 28.5923 38.4996 28.5923C38.4996 28.5923 51.2188 21.154 52.6859 9.2282C52.8225 8.11832 50.248 6.879 48.3734 7.16426C45.3962 7.61732 35.2898 17.8771 35.2898 30.9175C35.2898 35.2827 37.2675 38.2935 40.4772 38.2935C43.2004 38.2935 46.8752 37.5744 51.2404 33.715C51.2428 33.715 53.0023 27.6934 52.053 29.345ZM50.0514 9.01485C50.3822 9.24498 49.4809 11.273 46.7937 15.9186C44.1065 20.5643 39.4393 24.5004 39.4393 24.5004C42.6634 14.6841 49.5696 8.67925 50.0514 9.01485Z" fill="#FF9994"/>
<path d="M62.9696 22.7145C61.3491 22.12 58.1729 22.0912 56.0466 23.8387C53.8245 25.6654 50.9503 29.4912 51.2427 33.715C51.3986 35.9491 53.1485 37.9603 55.8333 37.8476C58.9304 37.7182 64.614 33.7413 65.0431 27.0749C65.1917 24.7568 64.6859 23.3449 62.9696 22.7145ZM59.4314 33.1948C57.6072 35.5799 56.4901 35.7094 55.6247 35.7094C54.7953 35.7094 54.2248 35.1077 54.2248 33.6382C54.2248 32.3126 54.4765 31.2627 55.21 29.7932C55.3371 29.5391 55.7086 29.5463 55.8165 29.8076C56.0298 30.3182 56.4421 30.9918 57.2188 31.5144C58.4246 32.3198 59.7862 32.5667 59.7862 32.5667C59.7862 32.5667 59.7957 32.7201 59.4314 33.1948ZM60.6467 30.7761C60.6467 30.7761 60.0091 30.7281 59.2036 30.2847C57.8109 29.5176 57.1781 27.7365 58.1465 26.2527C59.2468 24.5651 60.618 24.0976 61.234 24.5938C62.6363 25.7229 61.2244 29.8652 60.6467 30.7761Z" fill="#FF9994"/>
<path d="M60.3279 32.6051C63.7055 32.8664 66.5845 32.4038 69.8206 30.2751C70.9832 29.5104 70.9329 27.166 70.4846 27.166C70.0363 27.166 66.8889 31.0877 60.7067 30.7953" fill="#FF9994"/>
<path d="M81.6672 23.81C79.9005 23.3977 75.9405 23.6254 71.3979 30.848C71.3979 30.848 71.6496 30.0833 71.9684 29.321C75.0943 21.8683 81.6888 10.8702 79.9533 8.83745C79.3899 8.17824 77.6832 8.26453 77.4147 9.04121C73.4402 18.9102 67.3611 31.7493 66.2848 35.7717C65.8245 37.4929 67.9652 38.176 68.4614 37.4545C68.7634 37.0158 69.0319 36.5412 69.3363 36.1553C69.3915 36.0857 69.4946 36.0905 69.5497 36.1601C70.6164 37.5096 72.1602 38.1137 73.8981 38.0898C79.1598 38.0154 84.2561 30.5987 84.1794 26.8448C84.1626 25.8883 83.4075 24.2175 81.6672 23.81ZM81.6672 26.5164C80.7995 31.711 74.5909 36.0618 72.781 35.9036C72.2896 35.8604 72.0595 35.5919 72.0595 34.9183C72.0595 32.2335 78.1794 26.8568 80.4974 26.3342C81.0967 26.1999 81.5258 26.2647 81.6672 26.5164Z" fill="#FF9994"/>
<path d="M105.092 27.4561C104.234 28.0913 98.6581 35.5584 92.567 35.7502C90.2538 35.8221 88.3984 34.681 88.5302 32.665C88.5302 32.665 96.738 33.1996 98.8475 26.5236C99.303 25.0805 97.8527 22.7433 95.271 22.7433C91.3972 22.7433 86.2841 25.7325 85.5937 31.6007C85.1215 35.6111 88.408 37.8525 92.2674 37.8549C96.2298 37.8596 100.262 36.1385 104.869 31.2795C105.993 30.0905 105.95 26.8208 105.092 27.4561ZM95.8271 24.7329C96.2035 25.0086 95.5515 26.7705 93.4204 28.6378C91.3924 30.4141 88.7867 30.4884 88.7867 30.4884C90.726 25.4377 95.4076 24.4237 95.8271 24.7329Z" fill="#FF9994"/>
<path d="M116.584 5.65645C112.624 5.50063 109.064 5.45509 107.216 6.30607C105.404 7.14267 105.742 9.22099 105.742 9.22099C105.742 9.22099 108.381 9.03881 111.14 8.91895C111.14 8.91895 107.573 16.2087 103.956 26.7848C100.506 36.8696 99.1352 44.1018 99.1352 44.1018C99.1352 44.1018 95.0266 44.1809 93.7728 45.099C92.5191 46.0171 92.5359 47.5057 92.7589 47.4794C93.2598 47.604 97.5292 47.1054 101.448 47.0982C105.368 47.091 106.645 47.5369 107.017 45.099C107.084 44.6531 107.163 44.3271 106.566 44.1761C105.946 44.0203 104.349 43.9508 101.6 44.0562C101.6 44.0562 102.685 38.5644 107.027 27.1204C111.368 15.6765 115.424 8.56897 115.424 8.56897C115.424 8.56897 118.888 8.28371 121.409 8.26933C121.409 8.26693 121.853 5.865 116.584 5.65645Z" fill="#FF9994"/>
<path d="M111.708 23.8363C110.529 26.3054 108.717 31.9339 108.007 35.1844C107.712 36.5316 108.146 37.6774 109.337 37.8308C110.529 37.9842 111.282 37.4665 112.343 36.1432C113.868 34.2423 117.852 29.8388 119.53 28.2039C120.05 27.6957 120.597 28.1704 120.503 28.8655C120.163 31.3945 118.986 37.023 123.819 37.8956C128.778 38.7921 133.692 34.4509 134.402 32.6746C134.402 32.6746 135.088 29.9203 133.285 29.3857C131.492 31.9099 128.222 35.5895 125.178 35.6327C123.306 35.659 122.917 33.7006 123.445 30.4189C123.588 29.5223 123.692 28.7433 123.773 28.0745C124.231 24.3661 121.254 23.309 119.108 25.2075C116.51 27.5063 112.976 31.8572 112.08 33.0389C111.759 33.4608 111.303 33.2499 111.509 32.7249C112.01 31.452 114.489 25.6701 114.69 25.0924C114.892 24.5099 113.619 23.249 111.708 23.8363Z" fill="#FF9994"/>
<path d="M37.663 29.1364C37.663 29.1364 35.8556 30.5891 33.5016 31.6175C31.2914 32.5835 30.112 31.047 30.5147 30.0953C33.9642 28.4269 36.3014 26.8879 38.4828 25.3346C39.0677 24.9175 37.663 29.1364 37.663 29.1364Z" fill="#FF9994"/>
<path d="M85.8982 32.5811C85.8982 32.5811 82.4271 32.4613 79.5577 31.5863C80.4063 31.0086 81.2285 29.8532 81.2093 29.194C82.3983 29.8268 85.1958 30.4932 87.4131 30.5364C88.1299 30.5507 85.8982 32.5811 85.8982 32.5811Z" fill="#FF9994"/>
</svg>
