<svg width="225" height="87" viewBox="0 0 225 87" fill="none" xmlns="http://www.w3.org/2000/svg">
<path d="M45.1089 1.25899C41.7927 -1.60323 34.911 0.665652 29.2351 5.5335C20.219 13.2677 -1.09748 36.2991 0.0441106 64.7249C0.405883 73.7586 5.94905 77.4649 10.5797 77.4064C15.2104 77.3479 22.0118 75.9773 38.3197 57.9517C38.3197 57.9517 33.496 67.6122 32.8087 76.5038C32.3625 82.2868 34.1271 86.2939 36.0727 87C36.0727 87 36.6796 75.6556 40.3215 65.8531C43.9633 56.0505 46.8495 49.7536 48.2684 45.2744C48.2684 45.2744 53.9884 43.6866 57.1761 43.3857C57.1761 43.3857 56.3802 39.3995 52.063 39.6753C47.0625 39.997 31.7917 45.1992 23.5352 45.6254C23.5352 45.6254 22.7273 51.6214 28.0453 51.5545C33.3634 51.4877 40.2572 47.7689 41.0048 47.4346C41.7525 47.1003 40.3577 48.9138 36.0284 53.3262C31.6992 57.7386 16.9188 74.2015 9.03617 74.2976C6.78514 74.3269 4.74314 71.0343 4.67078 64.6622C4.59843 58.2901 7.17505 34.4147 33.7734 8.78431C37.6725 5.02792 41.033 3.61979 42.255 3.60308C43.4769 3.58636 44.6065 6.07252 43.0991 11.4961C41.9294 15.7079 42.8659 17.7178 44.7713 17.9977C46.5922 18.2651 50.2863 15.1313 50.4672 6.34829C50.6481 -2.43473 46.5962 2.54176 45.1089 1.25899Z" fill="#553F3F"/>
<path d="M86.6967 50.1464C84.1643 54.7301 74.3965 61.1524 67.8765 60.8682C65.6255 60.7721 63.905 59.3347 63.7041 53.6814C63.6116 50.9988 63.9694 48.8344 63.9694 48.8344C63.9694 48.8344 85.2979 35.8688 87.7579 15.0812C87.9871 13.1466 83.6699 10.9863 80.5265 11.4836C75.534 12.2733 58.587 30.1569 58.587 52.8875C58.587 60.4963 61.9032 65.7444 67.2856 65.7444C71.852 65.7444 78.0142 64.4909 85.334 57.7637C85.3381 57.7637 88.2885 47.2675 86.6967 50.1464ZM83.3403 14.7093C83.895 15.1104 82.3836 18.6454 77.8775 26.7431C73.3714 34.8409 65.5451 41.7019 65.5451 41.7019C70.9516 24.5913 82.5323 14.1243 83.3403 14.7093Z" fill="#553F3F"/>
<path d="M105.002 38.5889C102.285 37.5526 96.959 37.5025 93.3935 40.5486C89.6672 43.7325 84.8476 50.4013 85.338 57.7636C85.5993 61.6579 88.5337 65.1636 93.0357 64.9672C98.2292 64.7416 107.76 57.8096 108.479 46.1894C108.729 42.1489 107.88 39.6878 105.002 38.5889ZM99.0693 56.8569C96.0103 61.0144 94.1371 61.2401 92.686 61.2401C91.2952 61.2401 90.3385 60.1913 90.3385 57.6299C90.3385 55.3193 90.7606 53.4891 91.9906 50.9277C92.2037 50.4848 92.8267 50.4974 93.0076 50.9528C93.3654 51.8428 94.0567 53.0169 95.3591 53.9278C97.381 55.3318 99.6642 55.7622 99.6642 55.7622C99.6642 55.7622 99.6803 56.0296 99.0693 56.8569ZM101.107 52.6409C101.107 52.6409 100.038 52.5573 98.6874 51.7843C96.352 50.4472 95.2908 47.3427 96.9147 44.7562C98.7598 41.8146 101.059 40.9998 102.092 41.8648C104.444 43.8328 102.076 51.0531 101.107 52.6409Z" fill="#553F3F"/>
<path d="M100.573 55.8291C106.236 56.2845 111.064 55.4781 116.491 51.7677C118.44 50.4347 118.356 46.3483 117.604 46.3483C116.852 46.3483 111.575 53.1841 101.208 52.6744" fill="#553F3F"/>
<path d="M136.356 40.4984C133.393 39.7798 126.753 40.1767 119.136 52.7663C119.136 52.7663 119.558 51.4333 120.092 50.1046C125.334 37.1139 136.392 17.9434 133.482 14.4001C132.537 13.251 129.675 13.4014 129.225 14.7553C122.56 31.9578 112.366 54.3373 110.562 61.3487C109.79 64.3488 113.379 65.5397 114.211 64.282C114.718 63.5173 115.168 62.69 115.679 62.0173C115.771 61.8961 115.944 61.9044 116.036 62.0256C117.825 64.3781 120.414 65.431 123.328 65.3892C132.151 65.2597 140.697 52.3317 140.569 45.7883C140.54 44.1211 139.274 41.2088 136.356 40.4984ZM136.356 45.2159C134.901 54.2705 124.49 61.8543 121.455 61.5785C120.631 61.5033 120.245 61.0353 120.245 59.8612C120.245 55.1814 130.507 45.8092 134.394 44.8983C135.399 44.6643 136.119 44.7771 136.356 45.2159Z" fill="#553F3F"/>
<path d="M175.636 46.8539C174.197 47.9611 164.848 60.9769 154.634 61.3112C150.755 61.4365 147.643 59.4476 147.864 55.9335C147.864 55.9335 161.628 56.8653 165.165 45.2284C165.929 42.713 163.497 38.6391 159.168 38.6391C152.672 38.6391 144.098 43.8496 142.94 54.0783C142.148 61.0688 147.659 64.9756 154.131 64.9798C160.776 64.9882 167.537 61.9881 175.263 53.5184C177.148 51.4459 177.076 45.7466 175.636 46.8539ZM160.1 42.1072C160.731 42.5877 159.638 45.6588 156.065 48.9138C152.664 52.01 148.294 52.1395 148.294 52.1395C151.546 43.3356 159.397 41.5682 160.1 42.1072Z" fill="#553F3F"/>
<path d="M194.907 8.85534C188.266 8.58374 182.297 8.50435 179.198 9.98769C176.159 11.446 176.726 15.0686 176.726 15.0686C176.726 15.0686 181.152 14.7511 185.778 14.5422C185.778 14.5422 179.797 27.2487 173.731 45.6839C167.947 63.2624 165.648 75.8687 165.648 75.8687C165.648 75.8687 158.758 76.0066 156.656 77.6069C154.553 79.2072 154.581 81.802 154.955 81.7561C155.795 81.9734 162.954 81.1043 169.527 81.0917C176.099 81.0792 178.241 81.8564 178.864 77.6069C178.977 76.8297 179.11 76.2615 178.109 75.9982C177.068 75.7266 174.39 75.6055 169.78 75.7893C169.78 75.7893 171.601 66.2166 178.88 46.2688C186.16 26.3211 192.961 13.9321 192.961 13.9321C192.961 13.9321 198.77 13.4349 202.999 13.4098C202.999 13.4056 203.742 9.21886 194.907 8.85534Z" fill="#553F3F"/>
<path d="M186.731 40.5444C184.753 44.8481 181.714 54.659 180.525 60.325C180.03 62.6732 180.758 64.6705 182.755 64.9379C184.753 65.2053 186.015 64.3028 187.796 61.9963C190.353 58.6828 197.033 51.0071 199.847 48.1574C200.719 47.2716 201.636 48.0989 201.479 49.3107C200.908 53.7189 198.935 63.5298 207.038 65.0507C215.355 66.6135 223.596 59.0464 224.785 55.9502C224.785 55.9502 225.935 51.1492 222.912 50.2174C219.906 54.6172 214.423 61.0311 209.318 61.1063C206.178 61.1523 205.527 57.7385 206.411 52.0183C206.653 50.4556 206.825 49.0976 206.962 47.9318C207.73 41.4678 202.737 39.6251 199.14 42.9344C194.782 46.9415 188.857 54.5253 187.354 56.5853C186.815 57.3207 186.052 56.953 186.397 56.0379C187.237 53.8192 191.394 43.7408 191.731 42.7338C192.069 41.7185 189.935 39.5206 186.731 40.5444Z" fill="#553F3F"/>
<path d="M62.5665 49.7829C62.5665 49.7829 59.5357 52.315 55.5884 54.1076C51.8822 55.7915 49.9045 53.1131 50.5798 51.4543C56.3642 48.5461 60.2834 45.8635 63.9413 43.1559C64.9221 42.4289 62.5665 49.7829 62.5665 49.7829Z" fill="#553F3F"/>
<path d="M143.451 55.7873C143.451 55.7873 137.63 55.5783 132.819 54.0532C134.242 53.0462 135.62 51.0322 135.588 49.8832C137.582 50.9863 142.273 52.1479 145.991 52.2231C147.193 52.2481 143.451 55.7873 143.451 55.7873Z" fill="#553F3F"/>
</svg>
